# xmcd CD database file
#
# Track frame offsets:
#	150
#	21206
#	53935
#	79528
#	108269
#	127946
#	148309
#	179687
#	228078
#	263580
#
# Disc length: 3971 seconds
#
# Revision: 0
# Processed by: cddbd v1.5.2PL0 Copyright (c) Steve Scherf et al.
# Submitted via: CDex 1.70beta2
#
DISCID=7f0f810a
DTITLE=Jason Smith featuring Gary Husband and Dave Carpenter - Think Like This
DYEAR=2005
DGENRE=Jazz
TTITLE0=Gnu York
TTITLE1=Taylor Made
TTITLE2=Halcyon
TTITLE3=The Way You Look Tonight
TTITLE4=The Magician in You
TTITLE5=Smatter
TTITLE6=Lullabye
TTITLE7=Three Lies
TTITLE8=White Knights
TTITLE9=Dolphin Dance
EXTD=YEAR: 2005
EXTT0=
EXTT1=
EXTT2=
EXTT3=
EXTT4=
EXTT5=
EXTT6=
EXTT7=
EXTT8=
EXTT9=
PLAYORDER=
